# xmcd CD database file
#
# Track frame offsets:
#	150
#	13346
#	28385
#	43458
#	58711
#	77028
#	93230
#	112117
#	144561
#	167083
#	195194
#	207243
#	247968
#	256882
#
# Disc length: 3686 seconds
#
# Revision: 0
# Processed by: cddbd v1.5.1PL0 Copyright (c) Steve Scherf et al.
# Submitted via: CDex 1.51
#
DISCID=c50e640e
DTITLE=Good Men Gone Bad - At Church
DYEAR=1900
DGENRE=Jazz
TTITLE0=C.C. Rider
TTITLE1=Walk On
TTITLE2=Black, Brown and White
TTITLE3=Rockin' Daddy
TTITLE4=Crossroads
TTITLE5=You Don't Love Me
TTITLE6=Johnny Too Bad
TTITLE7=Country Boy
TTITLE8=Down In Mississippi
TTITLE9=Me And My Uncle
TTITLE10=I'm So Glad
TTITLE11=Who Do You Love
TTITLE12=Dixie Blues
TTITLE13=Stay Close
EXTD=
EXTT0=
EXTT1=
EXTT2=
EXTT3=
EXTT4=
EXTT5=
EXTT6=
EXTT7=
EXTT8=
EXTT9=
EXTT10=
EXTT11=
EXTT12=
EXTT13=
PLAYORDER=
